<svg height="512" viewBox="0 0 256 256" width="512" xmlns="http://www.w3.org/2000/svg"><switch><g><circle cx="128" cy="128" fill="#382b73" r="120"/><circle cx="128" cy="128" fill="#473080" r="102.5"/><path d="M206.325 163.017l-17.427-17.427v-38.723h.107v-3.922h-.107v-8.297a6.796 6.796 0 00-1.772-4.585 6.8 6.8 0 00-5.048-2.234h-7.383c-7.255-8.765-18.217-14.349-30.484-14.349s-23.229 5.584-30.484 14.349H73.815a6.803 6.803 0 00-5.745 3.144 6.814 6.814 0 00-.538 1.021 6.8 6.8 0 00-.536 2.654v76.449a6.82 6.82 0 006.82 6.82h32.602a23.97 23.97 0 00-2.489 10.67c0 13.294 10.777 24.071 24.071 24.071s24.071-10.777 24.071-24.071a23.97 23.97 0 00-2.488-10.67h32.496a6.82 6.82 0 006.82-6.82v-1.246l5.297 5.297a5.766 5.766 0 001.838 1.234 5.792 5.792 0 001.086.331l.185.034a5.711 5.711 0 004.979-1.598l4.043-4.043a5.723 5.723 0 00-.002-8.089z" fill="#382b73"/><path d="M182.078 170.917H73.815a6.82 6.82 0 01-6.82-6.82V91.353a6.82 6.82 0 016.82-6.82h108.263a6.82 6.82 0 016.82 6.82v72.744a6.82 6.82 0 01-6.82 6.82z" fill="#d1d3d4"/><path d="M182.078 167.212H73.815a6.82 6.82 0 01-6.82-6.82V87.648a6.82 6.82 0 016.82-6.82h108.263a6.82 6.82 0 016.82 6.82v72.744a6.82 6.82 0 01-6.82 6.82z" fill="#fff"/><path d="M182.078 80.828H73.815a6.82 6.82 0 00-6.82 6.82v12.219h121.902V87.648a6.819 6.819 0 00-6.819-6.82z" fill="#1caee4"/><path d="M80.937 88.982a2.788 2.788 0 11-5.575 0 2.788 2.788 0 015.575 0z" fill="#fff"/><path d="M66.995 95.945h122.009v3.922H66.995z" fill="#009add"/><path d="M106.599 115.31H78.36a3 3 0 110-6h28.238a3 3 0 01.001 6zM106.599 127.358H78.36a3 3 0 110-6h28.238a3 3 0 01.001 6zM106.599 145.223H78.36a3 3 0 110-6h28.238a3 3 0 01.001 6zM116.599 157.271H78.36a3 3 0 110-6h38.238a3 3 0 01.001 6zM175.464 157.271h-38.238a3 3 0 110-6h38.238a3 3 0 110 6z" fill="#d1d3d4"/><path d="M188.559 142.251c-1.493-1.493-3.601-1.964-5.505-1.461l-7.123-7.123a39.377 39.377 0 007.835-23.633c0-9.719-3.512-18.614-9.327-25.5h-60.454c-5.815 6.886-9.327 15.781-9.327 25.5 0 21.845 17.709 39.554 39.554 39.554 8.86 0 17.039-2.914 23.633-7.835l7.123 7.124a5.722 5.722 0 00-.205 1.366c0 .032-.009.063-.009.096 0 1.463.558 2.927 1.675 4.043l12.051 12.05a6.793 6.793 0 00.419-2.335V142.59z" fill="#d1d3d4"/><path d="M163.844 133.784l8.085-8.086 12.21 12.21-8.086 8.085z" fill="#e43d91"/><path d="M163.845 133.783l2.233-2.233 12.21 12.21-2.234 2.233z" fill="#a72973"/><path d="M194.195 168.147l-17.766-17.766a5.719 5.719 0 010-8.087l4.043-4.043a5.718 5.718 0 018.087 0l17.766 17.766a5.719 5.719 0 010 8.087l-4.043 4.043a5.717 5.717 0 01-8.087 0z" fill="#fede3a"/><path d="M197.934 164.409l-17.766-17.766a5.719 5.719 0 010-8.087l.32-.32-.016.015-4.043 4.043a5.719 5.719 0 000 8.087l17.766 17.766a5.72 5.72 0 008.088 0l3.723-3.723a5.719 5.719 0 01-8.072-.015z" fill="#e7ad27"/><path d="M144.211 66.48c-21.845 0-39.554 17.709-39.554 39.554s17.709 39.554 39.554 39.554 39.554-17.709 39.554-39.554-17.709-39.554-39.554-39.554zm0 68.921c-16.219 0-29.368-13.148-29.368-29.368 0-16.219 13.148-29.367 29.368-29.367s29.368 13.148 29.368 29.367c0 16.22-13.149 29.368-29.368 29.368z" fill="#ef5a9d"/><path d="M144.211 72.195c-18.689 0-33.839 15.15-33.839 33.839s15.15 33.839 33.839 33.839 33.839-15.15 33.839-33.839-15.15-33.839-33.839-33.839zm0 63.206c-16.219 0-29.368-13.148-29.368-29.368 0-16.219 13.148-29.367 29.368-29.367s29.368 13.148 29.368 29.367c0 16.22-13.149 29.368-29.368 29.368z" fill="#e43d91"/><circle cx="144.211" cy="106.034" fill="#fff" r="29.367"/><g fill="#bcbec0"><path d="M127.728 130.342v-8.139h-8.035a29.517 29.517 0 008.035 8.139zM118.957 91.036a29.225 29.225 0 00-4.107 15.583h12.877V91.036zM143.311 76.68a29.222 29.222 0 00-15.583 5.045v9.311h15.583zM127.728 106.619h15.583v15.583h-15.583zM143.311 135.387a29.226 29.226 0 0015.583-3.915v-9.269h-15.583zM158.894 80.595v10.441h10.571a29.504 29.504 0 00-10.571-10.441zM173.572 106.619h-14.678v15.583h9.836a29.21 29.21 0 004.842-15.583zM143.311 91.036h15.583v15.583h-15.583z"/></g><circle cx="128" cy="181.587" fill="#1caee4" r="24.071"/><path d="M125.928 195.548a4.448 4.448 0 01-3.143-1.302l-8.691-8.69a4.445 4.445 0 116.286-6.286l5.548 5.545 11.241-11.242a4.445 4.445 0 116.286 6.286l-14.384 14.387a4.444 4.444 0 01-3.143 1.302z" fill="#009add"/><path d="M125.928 193.66a4.448 4.448 0 01-3.143-1.302l-8.691-8.69a4.445 4.445 0 116.286-6.286l5.548 5.545 11.241-11.242a4.445 4.445 0 116.286 6.286l-14.384 14.387a4.444 4.444 0 01-3.143 1.302z" fill="#fff335"/><path d="M143.454 171.981l-14.384 14.387a4.444 4.444 0 01-6.286 0l-8.691-8.69c-.046-.046-.077-.1-.121-.148-1.601 1.745-1.57 4.449.121 6.138l8.691 8.69a4.444 4.444 0 006.286 0l14.384-14.387c1.691-1.69 1.721-4.395.121-6.138-.043.047-.074.102-.121.148z" fill="#f7cb15"/></g></switch></svg>